<svg width="1102" height="616" viewBox="0 0 1102 616" fill="none" xmlns="http://www.w3.org/2000/svg">
<g clip-path="url(#clip0)">
<path d="M338.962 612.926C259.123 611.287 160.273 575.651 122.444 547.832C84.6161 520.014 71.2229 504.045 48.2719 471.708C31.6335 445.233 22.391 419.485 12.9142 387.53C1.99455 350.71 -0.0045166 284.116 -0.0045166 284.116C-0.0045166 284.116 81.3971 320.145 106.019 322.927C163.01 329.368 180.68 330.135 237.92 324.42C295.161 318.705 454.936 284.116 491.271 295.561C527.606 307.005 576.385 325.415 595.797 367.709C615.209 410.003 621.593 441.79 620.684 488.123C619.886 528.808 605.886 564.305 596.295 582.165C517.154 612.926 418.801 618.565 338.962 612.926Z" fill="#F8D048" fill-opacity="0.9"/>
</g>
<defs>
<clipPath id="clip0">
<rect width="1102" height="616" fill="white"/>
</clipPath>
</defs>
</svg>
