<svg width="1105" height="618" viewBox="0 0 1105 618" fill="none" xmlns="http://www.w3.org/2000/svg">
<path d="M338.5 615.911C258.299 606.245 207 596.454 169 575.5C131 557.546 120.546 548.5 85.5 518C65.7861 497.396 50.8351 478.282 32 443.5C25.4189 422.317 20.5 417.41 20.5 417.41C20.5 417.41 38.7664 419.115 63.5 421.911C120.75 428.382 153 418.154 210.5 405.41C268 392.667 350 370.911 419 388.41C488 405.91 512 430.91 541 489.41C556 547.91 549 599.41 549 599.41C517.5 609 418.701 617.577 338.5 615.911Z" fill="#F8D048" fill-opacity="0.9" stroke="#F1DA0B" stroke-opacity="0.73"/>
</svg>
