<svg width="118" height="66" viewBox="0 0 118 66" fill="none" xmlns="http://www.w3.org/2000/svg">
<path fill-rule="evenodd" clip-rule="evenodd" d="M43.7197 65.6966C76.8912 65.0914 112.234 37.979 117.218 18.8907C119.541 9.99047 116.43 4.56873 111.31 2.94934C104.257 0.718076 95.6346 7.94806 84.3673 6.39939C65.1795 3.76209 43.1346 0 33.0007 0C13.693 0 0 11.0733 0 30.3671C0 49.6609 10.5481 66.3017 43.7197 65.6966Z" fill="#FFD107"/>
<path fill-rule="evenodd" clip-rule="evenodd" d="M43.7197 65.6966C76.8912 65.0914 112.234 37.979 117.218 18.8907C119.541 9.99047 116.43 4.56873 111.31 2.94934C104.257 0.718076 95.6346 7.94806 84.3673 6.39939C65.1795 3.76209 43.1346 0 33.0007 0C13.693 0 0 11.0733 0 30.3671C0 49.6609 10.5481 66.3017 43.7197 65.6966Z" fill="#FFD107"/>
<path d="M37.76 45.4C34.3467 45.4 31.7333 44.2667 29.92 42C28.1333 39.7067 27.24 36.6 27.24 32.68C27.24 29.9067 27.76 27.56 28.8 25.64C29.84 23.6933 31.2133 22.24 32.92 21.28C34.6533 20.2933 36.5733 19.8 38.68 19.8C42.12 19.8 44.7067 20.8933 46.44 23.08C48.1733 25.24 49.04 28.3067 49.04 32.28C49.04 35.0267 48.5333 37.4 47.52 39.4C46.5333 41.3733 45.1867 42.8667 43.48 43.88C41.7733 44.8933 39.8667 45.4 37.76 45.4ZM38.16 43C39.84 43 41.0667 42.1467 41.84 40.44C42.64 38.7067 43.04 36.1333 43.04 32.72C43.04 29.0933 42.6667 26.44 41.92 24.76C41.2 23.0533 39.96 22.2 38.2 22.2C34.8933 22.2 33.24 25.5467 33.24 32.24C33.24 35.8133 33.6267 38.5067 34.4 40.32C35.2 42.1067 36.4533 43 38.16 43ZM58.4091 25.4C57.9557 25.56 57.1424 25.7733 55.9691 26.04C54.7957 26.28 53.8757 26.44 53.2091 26.52L52.7691 23.72C54.2091 23.4267 55.7024 22.9067 57.2491 22.16C58.8224 21.3867 60.1024 20.5867 61.0891 19.76H61.1291L64.2891 20.2V42.2L68.8491 42.64V45H53.6091V42.64L58.4091 42.24V25.4Z" fill="black"/>
</svg>
