<?xml version="1.0" encoding="UTF-8"?>
<svg width="60px" height="34px" viewBox="0 0 60 34" version="1.1" xmlns="http://www.w3.org/2000/svg" xmlns:xlink="http://www.w3.org/1999/xlink">
    <!-- Generator: Sketch 61 (89581) - https://sketch.com -->
    <title>number</title>
    <desc>Created with Sketch.</desc>
    <g id="Home" stroke="none" stroke-width="1" fill="none" fill-rule="evenodd">
        <g id="Homepage-UI-V5-Copy" transform="translate(-936.000000, -1168.000000)">
            <g id="Group-39" transform="translate(136.000000, 1162.000000)">
                <g id="Group-38">
                    <g id="Card-Copy-6" transform="translate(800.000000, 1.000000)">
                        <g id="number" transform="translate(0.000000, 5.000000)">
                            <path d="M22.2303424,33.3740072 C39.0972351,33.066597 57.0682916,19.2934055 59.602161,9.59649685 C60.7836129,5.07517813 59.2015803,2.32092594 56.5985094,1.49827143 C53.0118917,0.364784336 48.6277804,4.03763007 42.8986055,3.25090306 C33.1421392,1.91115072 21.9328387,0 16.780033,0 C6.96256099,0 0,5.62525442 0,15.4265631 C0,25.2278717 5.36344964,33.6814174 22.2303424,33.3740072 Z" id="Oval-Copy-5" fill="#FFD107"></path>
                            <path d="M21.984,21.154 C24.686,21.154 26.352,19.25 26.352,16.184 L26.352,15.722 C26.352,12.614 24.574,10.85 21.998,10.85 C19.422,10.85 17.63,12.684 17.63,15.764 L17.63,16.24 C17.63,19.306 19.324,21.154 21.984,21.154 Z M22.04,19.376 C20.64,19.376 19.898,18.326 19.898,16.226 L19.898,15.75 C19.898,13.678 20.612,12.6 22.012,12.6 C23.398,12.6 24.098,13.734 24.098,15.75 L24.098,16.198 C24.098,18.298 23.454,19.376 22.04,19.376 Z M31.364,21.154 C33.8,21.154 35.242,19.964 35.242,18.088 C35.242,16.814 34.458,15.988 33.296,15.736 C34.29,15.386 34.948,14.686 34.948,13.566 C34.948,11.998 33.66,10.85 31.462,10.85 C29.18,10.85 27.878,12.194 27.766,14.028 L29.768,14.028 C29.88,13.09 30.468,12.516 31.42,12.516 C32.344,12.516 32.806,13.048 32.806,13.762 C32.806,14.616 32.33,15.092 31.28,15.092 L30.552,15.092 L30.552,16.604 L31.336,16.604 C32.414,16.604 32.946,17.094 32.946,18.046 C32.946,18.942 32.414,19.488 31.28,19.488 C30.076,19.488 29.558,18.788 29.474,17.822 L27.43,17.822 C27.514,19.852 28.816,21.154 31.364,21.154 Z" id="03" fill="#493C00" fill-rule="nonzero"></path>
                        </g>
                    </g>
                </g>
            </g>
        </g>
    </g>
</svg>