<svg width="118" height="66" viewBox="0 0 118 66" fill="none" xmlns="http://www.w3.org/2000/svg">
<path fill-rule="evenodd" clip-rule="evenodd" d="M43.7197 65.6966C76.8912 65.0914 112.234 37.979 117.218 18.8907C119.541 9.99047 116.43 4.56873 111.31 2.94934C104.257 0.718076 95.6346 7.94806 84.3673 6.39939C65.1795 3.76209 43.1346 0 33.0007 0C13.693 0 0 11.0733 0 30.3671C0 49.6609 10.5481 66.3017 43.7197 65.6966Z" fill="#FFD107"/>
<path fill-rule="evenodd" clip-rule="evenodd" d="M43.7197 65.6966C76.8912 65.0914 112.234 37.979 117.218 18.8907C119.541 9.99047 116.43 4.56873 111.31 2.94934C104.257 0.718076 95.6346 7.94806 84.3673 6.39939C65.1795 3.76209 43.1346 0 33.0007 0C13.693 0 0 11.0733 0 30.3671C0 49.6609 10.5481 66.3017 43.7197 65.6966Z" fill="#FFD107"/>
<path d="M37.76 45.4C34.3467 45.4 31.7333 44.2667 29.92 42C28.1333 39.7067 27.24 36.6 27.24 32.68C27.24 29.9067 27.76 27.56 28.8 25.64C29.84 23.6933 31.2133 22.24 32.92 21.28C34.6533 20.2933 36.5733 19.8 38.68 19.8C42.12 19.8 44.7067 20.8933 46.44 23.08C48.1733 25.24 49.04 28.3067 49.04 32.28C49.04 35.0267 48.5333 37.4 47.52 39.4C46.5333 41.3733 45.1867 42.8667 43.48 43.88C41.7733 44.8933 39.8667 45.4 37.76 45.4ZM38.16 43C39.84 43 41.0667 42.1467 41.84 40.44C42.64 38.7067 43.04 36.1333 43.04 32.72C43.04 29.0933 42.6667 26.44 41.92 24.76C41.2 23.0533 39.96 22.2 38.2 22.2C34.8933 22.2 33.24 25.5467 33.24 32.24C33.24 35.8133 33.6267 38.5067 34.4 40.32C35.2 42.1067 36.4533 43 38.16 43ZM52.8091 42.84C56.5157 40.6533 59.5557 38.24 61.9291 35.6C64.3024 32.96 65.4891 30.4133 65.4891 27.96C65.4891 26.6533 65.0757 25.6133 64.2491 24.84C63.4491 24.04 62.3157 23.64 60.8491 23.64C59.4624 23.64 58.2891 23.9067 57.3291 24.44C56.3957 24.9467 55.4757 25.6133 54.5691 26.44L53.0491 24.24C53.5824 23.5733 54.3424 22.8933 55.3291 22.2C56.3424 21.5067 57.5157 20.9333 58.8491 20.48C60.1824 20 61.5291 19.76 62.8891 19.76C64.8357 19.76 66.4624 20.0933 67.7691 20.76C69.1024 21.4267 70.0891 22.3067 70.7291 23.4C71.3691 24.4933 71.6891 25.7067 71.6891 27.04C71.6891 29.6 70.4624 32.1733 68.0091 34.76C65.5557 37.3467 62.4357 39.72 58.6491 41.88L70.2491 40.8L71.7691 37.44L74.2891 37.96L73.1291 45H53.6491L52.8091 42.84Z" fill="black"/>
</svg>
