<?xml version="1.0" encoding="UTF-8"?>
<svg width="267px" height="216px" viewBox="0 0 267 216" version="1.1" xmlns="http://www.w3.org/2000/svg" xmlns:xlink="http://www.w3.org/1999/xlink">
    <!-- Generator: Sketch 61 (89581) - https://sketch.com -->
    <title>Group 14</title>
    <desc>Created with Sketch.</desc>
    <defs>
        <polygon id="path-1" points="0 0.106596491 266.925088 0.106596491 266.925088 215.73074 0 215.73074"></polygon>
    </defs>
    <g id="Home" stroke="none" stroke-width="1" fill="none" fill-rule="evenodd">
        <g id="Homepage-UI" transform="translate(-242.000000, -865.000000)">
            <g id="Process" transform="translate(242.000000, 744.000000)">
                <g id="Service" transform="translate(0.000000, 120.000000)">
                    <g id="Group-14" transform="translate(0.000000, 1.000000)">
                        <path d="M245,107.5 C245,155.272087 206.495948,194 159,194 C111.504052,194 73,155.272087 73,107.5 C73,59.7266428 111.504052,21 159,21 C206.495948,21 245,59.7266428 245,107.5" id="Fill-1" fill="#FFFFFF"></path>
                        <g id="Group-5">
                            <mask id="mask-2" fill="white">
                                <use xlink:href="#path-1"></use>
                            </mask>
                            <g id="Clip-4"></g>
                            <path d="M159.434178,215.73074 C131.895216,215.73074 104.356254,205.218296 83.3910597,184.193407 C81.8358796,182.633799 80.3148654,181.013278 78.8621829,179.368647 L78.7432351,179.368647 L39.1513109,179.368647 L39.1513109,104.112793 C39.1513109,96.8477345 39.2778512,90.003986 39.5284009,83.7021029 C37.7353251,85.6221088 35.705619,87.5954129 33.4633251,89.6004421 L21.3799934,99.9720269 L-0.000253080569,73.6122374 L44.3850171,37.0521789 L78.7482967,37.0521789 C79.5720739,37.0521789 80.2402066,37.722214 80.2402066,38.5470678 C80.2402066,39.3731906 79.5720739,40.0432257 78.7482967,40.0432257 L45.4517517,40.0432257 L4.18696493,74.0348164 L21.7646758,95.7043602 L31.5006853,87.3479567 C34.8856379,84.3213778 37.7720218,81.3645942 40.0586047,78.5753193 L42.9310692,75.0741322 L42.7007659,79.601945 C42.3249412,86.9850211 42.1338654,95.2310211 42.1338654,104.112793 L42.1338654,176.3776 L80.216164,176.381407 L80.6603204,176.890278 C82.2028464,178.660542 83.8314199,180.405425 85.4992209,182.077974 C126.26797,222.961536 192.601652,222.961536 233.369136,182.077974 C274.136619,141.194413 274.136619,74.6731263 233.369136,33.7882959 C196.152373,-3.53316608 136.811306,-7.27800234 95.3339318,25.0791088 C94.6860455,25.5841731 93.7471166,25.4686936 93.2409555,24.8164246 C92.7360597,24.1641556 92.8537422,23.2250912 93.5028938,22.7174889 C136.16342,-10.5621895 197.200126,-6.71329474 235.477297,31.6741322 C277.407685,73.7239099 277.407685,142.143629 235.477297,184.193407 C214.512102,205.218296 186.97314,215.73074 159.434178,215.73074" id="Fill-3" fill="#E8E8E8" mask="url(#mask-2)"></path>
                            <path d="M78,37.0479283 L80,37.0479283 C80.5522847,37.0479283 81,37.4956435 81,38.0479283 L81,138.259698 L81,138.259698 L78,138.259698 L78,37.0479283 Z" id="Rectangle" fill="#E8E8E8" mask="url(#mask-2)"></path>
                        </g>
                        <path d="M101,24.4993852 C101,28.0896623 98.0896623,31 94.4993852,31 C90.9091081,31 88,28.0896623 88,24.4993852 C88,20.9103377 90.9091081,18 94.4993852,18 C98.0896623,18 101,20.9103377 101,24.4993852" id="Fill-6" fill="#FF0021"></path>
                        <path d="M131.562003,131.088005 C131.562003,131.088005 123.988022,133.533728 118.307536,131.473361 C114.089691,129.944784 108.996277,138.689785 114.214412,138.689785 C119.433807,138.689785 125.587981,141.630047 132.123878,138.701345 C140.161469,135.10084 151.123081,139.880533 154.999518,137.944764 C158.877215,136.011564 164.456915,136.154145 172.047274,138.814383 C179.637632,141.47462 183.811384,134.88761 188.554571,135.613363 C193.299018,136.339116 204.526449,133.451519 201.485266,132.024419 C197.530721,130.16829 194.854884,129.546583 185.365991,130.030847 C175.878358,130.513826 178.164914,129.174073 171.048244,127.759818 C163.932834,126.346848 164.763049,130.251784 160.470875,127.870287 C156.17996,125.48879 155.904062,128.763027 151.634564,128.642282 C147.365066,128.521538 146.091398,128.298032 144.447345,129.027638 C140.163989,130.93001 142.102837,126.250509 131.562003,131.088005" id="Fill-8" fill="#272626"></path>
                        <path d="M213.573263,88.6553298 C213.573263,88.6553298 215.676337,87.2837047 217.235991,88.3815142 C218.862469,89.4767766 220.762548,87.6950649 220.762548,87.6950649 C220.762548,87.6950649 224.4921,85.2281774 222.320941,83.3114683 C222.320941,83.3114683 222.049861,82.970154 221.168537,83.1076985 C221.168537,83.1076985 220.694463,83.0376527 220.694463,82.2149324 C220.626378,81.4622579 216.285321,76.5998024 214.048598,74.8155435 C214.048598,74.8155435 213.980513,72.8313357 209.097297,68.5152378 C209.097297,68.5152378 207.876808,63.9265979 204.486421,67.1448863 C204.486421,67.1448863 203.808091,69.062869 201.229682,69.2679123 C198.653795,69.4742291 198.31463,70.2281772 198.31463,70.2281772 C188.956708,69.6105001 185.02164,67.8313356 176.002883,70.7057625 C165.084046,74.062869 158.777346,76.4609842 136.126434,72.6950646 C136.126434,72.6950646 118.019573,69.8868629 113.882771,79.5442752 C111.169453,85.8458545 115.64668,100.094454 114.900266,107.971428 C113.069532,107.903929 114.426191,109.755687 113.814686,110.850949 C113.544867,111.467353 113.544867,112.835157 114.153851,113.660424 C114.426191,114.962004 115.306255,115.1645 115.10326,116.263583 C117.612323,113.795422 115.78159,112.767658 116.867169,111.261036 C117.883403,109.820638 117.612323,108.108973 116.391834,107.903929 C116.867169,105.985947 116.18884,103.177745 116.459919,97.8351568 C117.274419,100.300771 117.545499,102.971428 117.545499,102.971428 C117.545499,102.971428 118.222568,109.615595 117.138249,113.177745 C117.138249,113.177745 116.256925,114.823186 117.545499,117.287526 C118.900897,119.685641 120.324381,127.906477 120.528636,130.03205 C120.664806,132.152529 121.54613,131.263583 121.54613,131.263583 C121.54613,131.263583 121.885295,133.044021 121.682301,134.345601 C121.54613,135.579681 129.277575,134.689462 129.277575,134.689462 C129.277575,134.689462 130.090814,133.524154 129.209489,132.840252 C128.26008,132.087577 123.988369,130.714678 124.529267,118.247791 C124.529267,118.247791 125.954012,118.660425 126.361262,127.152529 C126.361262,127.152529 126.293177,129.825733 127.85283,130.850949 C127.85283,130.850949 127.717921,133.389156 129.006495,133.797969 C130.226984,134.278102 134.905945,133.797969 134.905945,133.797969 C134.905945,133.797969 129.48183,127.428891 129.683564,120.303318 C129.954643,113.247791 130.158899,114.208056 130.158899,114.208056 C130.158899,114.208056 136.668593,115.780903 140.738571,111.669849 C140.738571,111.669849 146.433765,114.13801 153.488141,113.795422 C159.794841,113.454108 163.321398,110.438315 170.645592,112.01371 C170.645592,112.01371 172.341416,115.574587 170.781762,121.192264 C170.781762,121.192264 169.288933,128.182839 170.171518,129.278102 C170.171518,129.278102 168.882944,131.468627 169.220848,132.565162 C169.628098,133.5942 174.376405,134.758234 176.070968,134.004286 C176.070968,134.004286 174.238974,131.604898 173.967894,129.755687 C173.696814,127.976523 174.104064,122.837704 174.104064,122.837704 L175.664979,119.275554 L176.545042,123.041474 C176.545042,123.041474 176.545042,130.442136 178.242127,130.920995 C178.242127,130.920995 177.494451,133.044021 177.833616,133.454108 C178.105957,133.866742 181.021009,135.509635 185.362066,133.659151 L181.563168,129.3456 C181.563168,129.3456 180.003514,126.26231 180.613759,123.112793 C180.613759,123.112793 181.835509,121.468626 182.377668,118.931693 C182.513838,118.041474 182.580662,116.534851 182.919827,115.097001 C183.598157,112.493843 184.547566,109.820638 184.615651,109.205508 C184.683736,111.467353 183.869236,112.971428 183.395162,115.233272 C184.276486,115.303318 186.040395,115.233272 187.668134,113.177745 C193.499499,105.848402 193.770579,108.177745 197.162227,98.7253758 C198.517625,94.9569091 197.094142,90.2307246 205.640086,89.5442753 C205.640086,89.5442753 208.894302,90.4344944 213.573263,88.6553298" id="Fill-10" fill="#FF0021"></path>
                        <polygon id="Fill-12" fill="#272626" points="156 45.0865087 164.018307 48.2179885 182.84663 31 184 31 164.272099 58"></polygon>
                    </g>
                </g>
            </g>
        </g>
    </g>
</svg>