<?xml version="1.0" encoding="UTF-8"?>
<svg width="267px" height="217px" viewBox="0 0 267 217" version="1.1" xmlns="http://www.w3.org/2000/svg" xmlns:xlink="http://www.w3.org/1999/xlink">
    <!-- Generator: Sketch 61 (89581) - https://sketch.com -->
    <title>Group 20</title>
    <desc>Created with Sketch.</desc>
    <defs>
        <polygon id="path-1" points="0 0.107154605 266.847429 0.107154605 266.847429 216.725146 0 216.725146"></polygon>
    </defs>
    <g id="Home" stroke="none" stroke-width="1" fill="none" fill-rule="evenodd">
        <g id="Homepage-UI" transform="translate(-587.000000, -864.000000)">
            <g id="Process" transform="translate(242.000000, 744.000000)">
                <g id="Service" transform="translate(0.000000, 120.000000)">
                    <g id="Group-20" transform="translate(345.000000, 0.000000)">
                        <path d="M245,108.5 C245,156.272087 206.272087,195 158.5,195 C110.726643,195 72,156.272087 72,108.5 C72,60.7266428 110.726643,22 158.5,22 C206.272087,22 245,60.7266428 245,108.5" id="Fill-1" fill="#FFFFFF"></path>
                        <g id="Group-5">
                            <mask id="mask-2" fill="white">
                                <use xlink:href="#path-1"></use>
                            </mask>
                            <g id="Clip-4"></g>
                            <path d="M70.2801214,145.25187 L50.5195786,145.25187 L50.5195786,142.123379 L52.4025643,140.430373 C58.3490357,135.082361 60.8105214,132.86794 65.2287357,128.762911 C65.8352071,128.198151 66.7836929,128.233847 67.3469357,128.843227 C67.9089071,129.451332 67.8733071,130.402373 67.2655643,130.965858 C62.9477929,134.979098 60.4952071,137.18842 54.8704071,142.24704 L70.2801214,142.24704 C71.1078214,142.24704 71.7791357,142.920163 71.7791357,143.750092 C71.7791357,144.578747 71.1078214,145.25187 70.2801214,145.25187 L70.2801214,145.25187 Z M158.845293,216.725274 C131.175193,216.725274 103.503821,206.164385 82.4387929,185.042607 C80.7160071,183.31518 79.0339071,181.511262 77.4395357,179.684396 L74.7504643,176.396549 L2.11756429,176.396549 L2.11756429,149.437215 L36.56565,114.508771 C46.1801929,104.427227 52.5640357,97.4372035 55.5188357,93.7503263 C58.4075214,90.1450398 60.4379929,87.0267474 61.55685,84.483414 C62.6413786,82.0140222 63.1919071,79.3890982 63.1919071,76.6825836 C63.1919071,73.4712269 62.2027357,71.0260573 60.1671786,69.2042912 C58.1112786,67.365952 55.11325,66.4340339 51.2557357,66.4340339 C47.1541071,66.4340339 42.92915,67.6387708 38.6965643,70.0163731 C34.3253929,72.4717415 29.2956214,76.1586187 23.7483786,80.9711918 L22.6066357,81.9604784 L-0.000635714286,55.4269462 L1.09279286,54.4478585 C8.32086429,47.9703263 14.5000071,43.2622912 19.4585786,40.4550632 C24.4374929,37.6338117 29.9313357,35.4461626 35.7837214,33.9533088 C41.6284786,32.4655544 48.2755071,31.7108409 55.5429929,31.7108409 C64.7316071,31.7108409 73.06455,33.3617766 80.3104214,36.6190281 C81.06565,36.9581392 81.4025786,37.8467123 81.06565,38.6039754 C80.7261786,39.3612386 79.8399929,39.7016246 79.0834929,39.3612386 C72.22795,36.2786421 64.30695,34.7156713 55.5429929,34.7156713 C48.5234357,34.7156713 42.1243357,35.4397883 36.5224214,36.8663497 C30.9268643,38.2929111 25.68095,40.3811216 20.9308929,43.0710632 C16.4096929,45.6322444 10.7798071,49.882607 4.18490714,55.7137883 L22.9321214,77.7152152 C28.1843929,73.2468526 32.9903929,69.7779754 37.2318786,67.3939988 C41.9158214,64.7627006 46.6353643,63.4292035 51.2557357,63.4292035 C55.86975,63.4292035 59.5390929,64.6173673 62.1633214,66.9630982 C64.8345929,69.3534491 66.1886643,72.6234491 66.1886643,76.6825836 C66.1886643,79.8085251 65.55295,82.8414023 64.29805,85.6945251 C63.0749357,88.4788058 60.90715,91.8214725 57.85445,95.6320105 C54.84625,99.386455 48.4064643,106.442771 38.7143643,116.60463 L5.11432143,150.671274 L5.11432143,173.391718 L76.1681071,173.391718 L79.7255643,177.742794 C81.2449214,179.48297 82.88125,181.237168 84.5582643,182.917426 C125.519879,223.989391 192.169436,223.989391 233.13105,182.917426 C274.092664,141.845461 274.092664,75.0163497 233.13105,33.9443848 C195.735793,-3.5490655 136.113421,-7.31115906 94.4385357,25.1937883 C93.7862929,25.702455 92.8428929,25.5864433 92.3368643,24.9311684 C91.8282929,24.2758936 91.9452643,23.3312269 92.5987786,22.8225602 C135.464993,-10.6117556 196.791079,-6.74257427 235.24925,31.8204784 C277.380579,74.0627591 277.380579,142.799051 235.24925,185.042607 C214.184221,206.164385 186.514121,216.725274 158.845293,216.725274 L158.845293,216.725274 Z" id="Fill-3" fill="#E8E8E8" mask="url(#mask-2)"></path>
                        </g>
                        <path d="M100,24.4993852 C100,28.0896623 97.0896623,31 93.4993852,31 C89.9103377,31 87,28.0896623 87,24.4993852 C87,20.9103377 89.9103377,18 93.4993852,18 C97.0896623,18 100,20.9103377 100,24.4993852" id="Fill-6" fill="#FF0021"></path>
                        <g id="Group-6" transform="translate(102.000000, 41.000000)">
                            <g id="Group-4" transform="translate(47.300003, 0.000000)">
                                <path d="M15.8542153,22.6767581 C18.3078333,25.4619866 23.8092408,33.3211319 38.927063,32.4299903 C53.2346512,31.5848855 51.7696825,23.5300837 51.9759239,18.9017377 C52.2443651,12.9120167 50.6140759,1.12494293 29.114228,0.235445524 C10.5885122,-0.532383106 6.12322212,0.491936458 1.94765213,4.58263802 C-0.749854478,7.22153513 -0.746580805,16.9090004 2.59420256,18.6912836 C5.93498592,20.4752109 13.7525172,20.2894194 15.8542153,22.6767581" id="Fill-8" fill="#FF0002"></path>
                                <path d="M5.34694251,7.30861747 C5.23793502,7.69750347 5.32051646,8.05697793 5.61285473,8.43769406 C7.06463632,10.3314708 12.9394794,11.7040097 16.1915363,11.7040097 C18.6392499,11.7040097 20.8838133,13.7660859 23.2621585,15.9507102 C24.9286519,17.4817446 26.6513006,19.0650661 28.5853577,20.1271498 C33.4328878,22.7921627 38.6502144,22.6303992 45.1675411,19.6810746 C46.9727712,18.8640872 47.9224577,17.6908933 47.9934777,16.1925385 C48.1289113,13.303671 46.2197969,9.40990906 43.2534718,7.72201309 C39.1904653,5.41157273 32.2734445,4.33805129 19.3742247,4.01615825 C18.6276885,3.99655055 17.9191398,3.98838068 17.2518819,3.98838068 C6.29002248,3.98838068 5.61285473,6.37561786 5.34694251,7.30861747 Z M27.9032351,21.3395591 C25.822183,20.1941427 24.0351208,18.555266 22.3091688,16.9670425 C20.1389288,14.9735933 18.0892576,13.0912543 16.1915363,13.0912543 C13.0418804,13.0912543 6.44197231,11.81512 4.49635376,9.27428915 C3.9397549,8.55043832 3.76963715,7.73998682 3.99921353,6.93443724 C4.65160685,4.63216675 7.00187443,2.31355651 19.4105605,2.62891365 C32.5608279,2.95734258 39.6710892,4.08478519 43.9521107,6.52104162 C46.779699,8.12887282 49.5773896,12.334724 49.3940588,16.2562635 C49.3279937,17.6729196 48.6425678,19.6336894 45.750566,20.9408692 C42.1334993,22.578112 39.796613,23.4000013 36.4058194,23.4000013 C33.3057124,23.4000013 30.4071041,22.7153658 27.9032351,21.3395591 Z" id="Fill-10" fill="#FFFFFF"></path>
                                <path d="M42.9000024,13.6500008 C42.9000024,15.4452688 41.1540542,16.9000006 39.0000021,16.9000006 C36.8459501,16.9000006 35.1000019,15.4452688 35.1000019,13.6500008 C35.1000019,11.8547327 36.8459501,10.4000006 39.0000021,10.4000006 C41.1540542,10.4000006 42.9000024,11.8547327 42.9000024,13.6500008" id="Fill-12" fill="#FFFFFF"></path>
                            </g>
                            <g id="Fill-15" transform="translate(0.000000, 23.400001)" fill="#3D3F52">
                                <path d="M42.8891489,0 C42.8891489,0 23.8338303,27.2802565 16.2599399,37.151194 C14.7391322,39.1310381 14.7391322,40.4187687 15.4023919,41.0293593 L13.7274936,41.4719128 C13.0558593,41.6499324 12.5885627,42.253868 12.5885627,42.9459816 L12.5885627,44.5348482 L0.495796515,58.4652981 C-0.144014659,59.2156424 -0.167463236,60.3120435 0.442199768,61.0873439 L2.48222597,63.6794424 C3.18903308,64.5761954 4.38491051,65.3714605 5.64275918,64.8157731 C6.43498611,64.4680526 6.91568194,63.6528226 6.99775196,62.7959993 L7.0563734,62.17709 C7.04799891,61.2986382 7.07312238,60.879377 7.49519677,60.3802567 L12.7326039,54.3791659 C12.9821638,54.0846849 13.142954,53.7269819 13.1999006,53.3459867 L13.7358681,49.7423375 C13.983753,48.0586381 15.3990421,46.7842174 17.1091134,46.7010306 L17.7422249,46.6694197 C18.3518879,46.6411362 18.8845056,46.2568135 19.1022424,45.6911437 L19.5360411,44.5647954 L21.8457259,46.5413121 C22.6731257,47.2483993 23.9326493,47.1036544 24.5674358,46.2202113 C27.2975201,42.4185777 34.0842083,32.630827 38.01017,23.9245038 C40.8491227,17.6322595 43.0750627,9.35684348 42.8891489,0" id="Fill-14"></path>
                            </g>
                            <g id="Group" transform="translate(56.400003, 41.600002)">
                                <polygon id="Fill-18" fill="#A1A1A1" points="54.600003 31.2000017 54.600003 49.6221414 32.6294661 58.5000032 11.7000006 49.6221414 11.7000006 31.6661306 32.0352696 40.7910572"></polygon>
                                <path d="M33.7616255,24.3459977 L12.8732216,15.7148128 L33.6268186,9.07955811 L53.2986323,15.7148128 L33.7616255,24.3459977 Z M66.3000036,4.36661999 L43.3012901,0 L33.440419,7.92014522 L22.6741785,0 L0,4.36661999 L11.0774613,15.7783882 L0,27.2386743 L11.3520678,32.3297182 L32.0274436,41.6000023 L54.9695715,31.8579225 L66.3000036,27.0496214 L54.9612501,15.9055388 L66.3000036,4.36661999 Z" id="Fill-16" fill="#272626"></path>
                            </g>
                        </g>
                    </g>
                </g>
            </g>
        </g>
    </g>
</svg>