<?xml version="1.0" encoding="UTF-8"?>
<svg width="267px" height="219px" viewBox="0 0 267 219" version="1.1" xmlns="http://www.w3.org/2000/svg" xmlns:xlink="http://www.w3.org/1999/xlink">
    <!-- Generator: Sketch 61 (89581) - https://sketch.com -->
    <title>Group 26</title>
    <desc>Created with Sketch.</desc>
    <defs>
        <polygon id="path-1" points="0 0.108070175 266.471006 0.108070175 266.471006 218.713193 0 218.713193"></polygon>
    </defs>
    <g id="Home" stroke="none" stroke-width="1" fill="none" fill-rule="evenodd">
        <g id="Homepage-UI" transform="translate(-932.000000, -865.000000)">
            <g id="Process" transform="translate(242.000000, 744.000000)">
                <g id="Service" transform="translate(0.000000, 120.000000)">
                    <g id="Group-26" transform="translate(690.000000, 1.000000)">
                        <path d="M245,109.5 C245,157.824366 205.824366,197 157.5,197 C109.17435,197 70,157.824366 70,109.5 C70,61.1743496 109.17435,22 157.5,22 C205.824366,22 245,61.1743496 245,109.5" id="Fill-1" fill="#FFFFFF"></path>
                        <g id="Group-5">
                            <mask id="mask-2" fill="white">
                                <use xlink:href="#path-1"></use>
                            </mask>
                            <g id="Clip-4"></g>
                            <path d="M157.429747,218.713193 C129.492304,218.713193 101.557429,208.055415 80.2885688,186.73986 C78.5505014,184.996585 76.8522274,183.176117 75.2425255,181.332491 L75.1642226,181.238573 L71.5083764,176.298222 C71.1592226,176.405006 70.8087851,176.509216 70.4544966,176.610854 C62.7743957,178.822433 53.8042226,179.943018 43.7955736,179.943018 C36.1809389,179.943018 29.0245688,179.384655 22.522862,178.283368 C16.0134534,177.179509 8.87505433,175.141614 1.31176587,172.226292 L0.341323558,171.851906 L0.341323558,136.711088 L2.54150625,137.836819 C8.56312644,140.918105 14.7760111,143.227462 21.0081505,144.701848 C27.2428572,146.178807 33.0642274,146.926292 38.313088,146.926292 C46.3282226,146.926292 52.1958043,145.817287 55.7502418,143.631439 C59.1159822,141.56138 60.7526409,138.37331 60.7526409,133.884538 C60.7526409,130.450737 59.8900255,127.800444 58.1866168,126.01214 C56.4138909,124.14793 53.4268284,122.703135 49.3114341,121.716351 C45.021463,120.688398 39.314338,120.167345 32.3492322,120.167345 L22.1788428,120.167345 L22.1788428,88.5002105 L32.5404966,88.5002105 C50.7504101,88.5002105 59.9837322,84.0140117 59.9837322,75.1676959 C59.9837322,71.9693333 58.8143236,69.6779883 56.4100399,68.1598596 C53.8119245,66.5233684 50.2164101,65.6935439 45.7197707,65.6935439 C37.0730784,65.6935439 27.9565688,68.6654737 18.6256889,74.5244211 L17.3381841,75.3323743 L-0.000128365385,47.3602105 L1.18725144,46.5381053 C8.72871779,41.3262924 16.5679918,37.5567018 24.4855688,35.336117 C32.3774726,33.1232515 41.5286409,32.0013801 51.6836264,32.0013801 C60.3572755,32.0013801 68.0540639,33.0344795 74.558338,35.0710877 C75.355487,35.3219649 75.8009149,36.1723743 75.5518861,36.9713216 C75.3028572,37.770269 74.4466601,38.2141287 73.6559293,37.9658246 C67.4430447,36.0205614 60.0517659,35.0337778 51.6836264,35.0337778 C41.8046264,35.0337778 32.9281601,36.1183392 25.2994053,38.2565848 C18.121213,40.2700351 10.9943668,43.6202105 4.09857837,48.2247719 L18.3137611,71.158807 C27.6882851,65.5185731 36.9010688,62.6611462 45.7197707,62.6611462 C50.795338,62.6611462 54.9325543,63.6479298 58.0210255,65.5919064 C61.3302851,67.6812632 63.0080207,70.9027836 63.0080207,75.1676959 C63.0080207,86.0261754 52.7580447,91.5326082 32.5404966,91.5326082 L25.2031313,91.5326082 L25.2031313,117.133661 L32.3492322,117.133661 C39.5505303,117.133661 45.4951313,117.683018 50.0148764,118.766292 C54.7066313,119.890737 58.1930351,121.625006 60.3778139,123.918924 C62.6331938,126.292608 63.778213,129.64407 63.778213,133.884538 C63.778213,139.437287 61.6101216,143.586409 57.3317034,146.21483 C53.2381313,148.733895 47.0149774,149.95869 38.313088,149.95869 C32.8318861,149.95869 26.7756072,149.182901 20.3124101,147.651906 C14.6027178,146.302316 8.9148476,144.278573 3.36689567,141.626994 L3.36689567,169.765123 C10.3820639,172.411556 16.9928813,174.27062 23.0286216,175.29214 C29.3621697,176.366409 36.3503813,176.91062 43.7955736,176.91062 C53.5218188,176.91062 62.209588,175.828632 69.6201216,173.696819 C70.2940399,173.501263 70.9615399,173.297988 71.617487,173.085708 L72.6508284,172.751205 L77.558237,179.382082 C79.1127418,181.160094 80.7519678,182.913661 82.4284197,184.595181 C123.783896,226.043953 191.075598,226.043953 232.431074,184.595181 C273.78655,143.146409 273.78655,75.7054737 232.431074,34.2554152 C194.676247,-3.58072515 134.4793,-7.37733333 92.4036938,25.4258246 C91.7451793,25.9378713 90.7939918,25.8207953 90.2805303,25.1595088 C89.7683524,24.4982222 89.8877322,23.5461754 90.5462466,23.0315556 C133.823352,-10.7094971 195.740396,-6.80481871 234.569641,32.1120234 C277.104795,74.7431345 277.104795,144.108749 234.569641,186.73986 C213.302064,208.055415 185.365905,218.713193 157.429747,218.713193" id="Fill-3" fill="#E8E8E8" mask="url(#mask-2)"></path>
                        </g>
                        <path d="M99,23.9993379 C99,27.8657902 95.8657902,31 92.0006621,31 C88.1342098,31 85,27.8657902 85,23.9993379 C85,20.1342098 88.1342098,17 92.0006621,17 C95.8657902,17 99,20.1342098 99,23.9993379" id="Fill-6" fill="#FF0021"></path>
                        <g id="Group-7" transform="translate(125.000000, 41.000000)">
                            <g id="Group-8">
                                <polygon id="Fill-8" fill="#FF0021" points="1.01999998 97.9199982 61.1999989 97.9199982 61.1999989 69.3599987 1.01999998 69.3599987"></polygon>
                                <polygon id="Fill-10" fill="#272626" points="11.2199998 43.8599992 50.999999 43.8599992 50.999999 11.2199998 11.2199998 11.2199998"></polygon>
                                <polygon id="Fill-11" fill="#FF0021" points="50.999999 10.1999998 11.2199998 10.1999998 14.7307293 1.01999998 47.4905751 1.01999998"></polygon>
                                <polygon id="Fill-12" fill="#FFFFFF" points="27.3104591 0 25.4999995 11.2199998 37.7399993 11.2199998 35.4950294 0"></polygon>
                                <polygon id="Fill-13" fill="#FFFFFF" points="25.4999995 10.1999998 25.4999995 25.1097645 27.4563823 23.1585895 29.2188078 25.4999995 31.3937159 23.0777551 33.4444912 25.4999995 35.2896719 23.0331568 37.7399993 25.0233553 37.7399993 10.1999998"></polygon>
                                <path d="M61.1999989,67.3199987 L0,67.3199987 C0,60.0670662 1.78684218,55.5543623 2.21458552,53.9710031 C2.63448035,52.3967737 2.31923221,49.9799991 2.31923221,49.9799991 L58.8807666,49.9799991 C58.8807666,49.9799991 58.5655185,52.3967737 58.9854133,53.9710031 C59.4118486,55.5543623 61.1999989,60.0670662 61.1999989,67.3199987" id="Fill-16" fill="#FF0021"></path>
                                <path d="M65.1545591,109.139998 C63.5685748,109.139998 62.1290293,108.327099 61.3026962,106.96569 C61.1784847,106.761808 48.9599991,86.5458761 48.9599991,78.13145 C48.9599991,68.7949491 56.5107486,61.1999989 65.7899988,61.1999989 C75.0705564,61.1999989 82.6199985,68.7949491 82.6199985,78.13145 C82.6199985,86.6300598 69.0234193,106.943329 68.886133,107.145896 C68.046725,108.395498 66.6516341,109.139998 65.1545591,109.139998" id="Fill-20" fill="#FFFFFF"></path>
                                <path d="M79.5599985,77.5939041 C79.5599985,83.8842183 70.1157454,99.4423147 66.2132591,105.240125 C65.4356516,106.394142 63.7333217,106.350569 63.0108823,105.160902 C59.4564805,99.3115966 50.999999,83.8564902 50.999999,77.5939041 C50.999999,69.6663126 57.3929309,63.2399988 65.279342,63.2399988 C73.1657531,63.2399988 79.5599985,69.6663126 79.5599985,77.5939041" id="Fill-21" fill="#272626"></path>
                                <polygon id="Fill-23" fill="#B168E3" points="13.5940497 97.9199982 13.9459497 97.9199982 13.9459497 77.5199986 13.5940497 77.5199986"></polygon>
                                <polygon id="Fill-24" fill="#3D3F52" points="15.5901897 89.7599983 16.0298097 89.7599983 16.0298097 86.6999984 15.5901897 86.6999984"></polygon>
                                <polygon id="Fill-25" fill="#3D3F52" points="11.5106998 89.7599983 11.9492998 89.7599983 11.9492998 86.6999984 11.5106998 86.6999984"></polygon>
                                <path d="M29.3508742,39.7799993 L17.5691249,39.7799993 C16.315911,39.7799993 15.2999997,38.7533559 15.2999997,37.4869032 L15.2999997,33.9143917 C15.2999997,32.647939 16.315911,31.6199994 17.5691249,31.6199994 L29.3508742,31.6199994 C30.6040881,31.6199994 31.6199994,32.647939 31.6199994,33.9143917 L31.6199994,37.4869032 C31.6199994,38.7533559 30.6040881,39.7799993 29.3508742,39.7799993" id="Fill-14" fill="#FFFFFF"></path>
                                <line x1="20.9099996" y1="31.6199994" x2="20.9099996" y2="39.7799993" id="Stroke-15" stroke="#3D3F52" stroke-width="1.01999998"></line>
                                <polygon id="Fill-17" fill="#FFFFFF" points="7.13999987 97.9199982 13.2599998 97.9199982 13.2599998 77.5199986 7.13999987 77.5199986"></polygon>
                                <polygon id="Fill-18" fill="#FFFFFF" points="14.2799997 97.9199982 20.3999996 97.9199982 20.3999996 77.5199986 14.2799997 77.5199986"></polygon>
                                <polygon id="Fill-19" fill="#FFFFFF" points="26.5199995 88.7399983 45.8999991 88.7399983 45.8999991 77.5199986 26.5199995 77.5199986"></polygon>
                                <path d="M73.4399986,78.5393596 C73.4399986,83.046496 69.7864962,86.6999984 65.2793598,86.6999984 C60.7735013,86.6999984 57.1199989,83.046496 57.1199989,78.5393596 C57.1199989,74.0335011 60.7735013,70.3799987 65.2793598,70.3799987 C69.7864962,70.3799987 73.4399986,74.0335011 73.4399986,78.5393596" id="Fill-22" fill="#FFFFFF"></path>
                            </g>
                        </g>
                    </g>
                </g>
            </g>
        </g>
    </g>
</svg>